<svg width="24" height="24" viewBox="0 0 24 24" fill="none" xmlns="http://www.w3.org/2000/svg">
<path d="M21 8.65V14.35C21 14.69 20.99 15.02 20.97 15.33C20.5981 14.9098 20.1407 14.5738 19.6286 14.3444C19.1164 14.115 18.5612 13.9976 18 14C15.79 14 14 15.79 14 18C14 18.75 14.21 19.46 14.58 20.06C14.78 20.4 15.04 20.71 15.34 20.97C15.03 20.99 14.7 21 14.35 21H8.65C3.9 21 2 19.1 2 14.35V8.65C2 3.9 3.9 2 8.65 2H14.35C19.1 2 21 3.9 21 8.65Z" fill="#7A7A7A"/>
<path d="M6.72002 14.42C7.10458 14.42 7.4734 14.2673 7.74532 13.9953C8.01725 13.7234 8.17002 13.3546 8.17002 12.97C8.17002 12.5855 8.01725 12.2166 7.74532 11.9447C7.4734 11.6728 7.10458 11.52 6.72002 11.52C6.33546 11.52 5.96664 11.6728 5.69471 11.9447C5.42279 12.2166 5.27002 12.5855 5.27002 12.97C5.27002 13.3546 5.42279 13.7234 5.69471 13.9953C5.96664 14.2673 6.33546 14.42 6.72002 14.42V14.42Z" stroke="white" stroke-width="1.5" stroke-linecap="round" stroke-linejoin="round"/>
<path d="M13.4799 12V6.33998C13.4799 5.12998 12.7199 4.96998 11.9599 5.17998L9.06993 5.96998C8.54993 6.10998 8.17993 6.52998 8.17993 7.12998V12.97" stroke="white" stroke-width="1.5" stroke-linecap="round" stroke-linejoin="round"/>
<path d="M8.16992 8.83L13.4799 7.38M12.0299 13.45C12.4145 13.45 12.7833 13.2972 13.0552 13.0253C13.3272 12.7534 13.4799 12.3846 13.4799 12C13.4799 11.6154 13.3272 11.2466 13.0552 10.9747C12.7833 10.7028 12.4145 10.55 12.0299 10.55C11.6454 10.55 11.2765 10.7028 11.0046 10.9747C10.7327 11.2466 10.5799 11.6154 10.5799 12C10.5799 12.3846 10.7327 12.7534 11.0046 13.0253C11.2765 13.2972 11.6454 13.45 12.0299 13.45V13.45Z" stroke="white" stroke-width="1.5" stroke-linecap="round" stroke-linejoin="round"/>
<path d="M19.49 17.98H16.51M18 16.52V19.51M22 18C22 18.75 21.79 19.46 21.42 20.06C21.0675 20.6525 20.5667 21.143 19.967 21.4831C19.3674 21.8233 18.6894 22.0014 18 22C17.3106 22.0014 16.6326 21.8233 16.033 21.4831C15.4333 21.143 14.9325 20.6525 14.58 20.06C14.1993 19.4404 13.9985 18.7272 14 18C14 15.79 15.79 14 18 14C20.21 14 22 15.79 22 18Z" stroke="white" stroke-width="1.5" stroke-miterlimit="10" stroke-linecap="round" stroke-linejoin="round"/>
</svg>
